<?xml version="1.0" encoding="utf-8" ?><svg xmlns="http://www.w3.org/2000/svg" xmlns:xlink="http://www.w3.org/1999/xlink" width="1400" height="1200"><rect fill="#F5F5F7" width="1400" height="1200" rx="40" ry="40"/><defs><linearGradient id="gradient_0" gradientTransform="matrix(87.6114 125.936 -139.595 186.583 80.9543 -45.2649)" gradientUnits="userSpaceOnUse" x1="0" y1="0" x2="1" y2="0"><stop offset="0" stop-color="#FF5A5F"/><stop offset="1" stop-color="#FA233B"/></linearGradient></defs><path fill="url(#gradient_0)" transform="matrix(1 0 0 1 601.198 376.641)" d="M134.8958 -32.8125Q146.4077 -32.8125 156.9862 -28.1312Q166.5415 -23.9027 174.449 -16.2033Q187.3443 -3.6473 194.5486 16.7649Q200.8149 34.5194 202.2472 56.7192Q203.6679 78.7401 200.191 103.0779Q196.8056 126.7759 190.0282 149.2942Q183.3965 171.3288 173.7256 191.5497Q164.1592 211.5522 151.9554 229.0813Q139.7154 246.6624 125.2853 261.0926Q112.2916 274.0862 95.737 282.3635Q78.9178 290.7731 61.036 293.0083Q41.3803 295.4653 23.4409 290.0834Q13.7274 287.1694 5.0897 282.0653Q-3.8889 276.7598 -11.353 269.2957Q-19.3367 261.312 -24.4978 251.5732Q-29.5029 242.1289 -31.5202 231.6753Q-33.4529 221.6604 -32.5014 211.4657Q-31.5769 201.5609 -28.005 192.2737Q-24.4201 182.953 -18.4688 175.0329Q-12.2931 166.8141 -4.0945 160.8018Q4.5357 154.473 14.6792 151.1224Q25.1727 147.6562 36.4583 147.6562Q50.2137 147.2603 59.6603 157.2668Q69.6667 166.7133 69.2708 180.4687Q69.6667 194.2241 59.6603 203.6707Q50.2137 213.6772 36.4583 213.2812Q35.3149 213.2812 34.7138 213.7221Q33.7993 214.3927 33.2458 215.8317Q31.7861 219.627 35.0509 222.8918Q41.4766 229.3175 52.8962 227.8901Q59.6238 227.0491 66.3886 223.6667Q73.418 220.152 78.8814 214.6887Q89.1888 204.3813 98.0974 191.5852Q107.256 178.4301 114.5231 163.2354Q129.8985 131.0869 135.2256 93.7971Q137.7416 76.185 136.7583 60.9443Q135.9104 47.8019 132.6649 38.6062Q131.428 35.1016 130.0143 32.7118Q129.9812 32.6558 129.9492 32.6024Q119.3911 31.3555 111.6939 23.2019Q101.6874 13.7554 102.0833 0Q101.6874 -13.7554 111.6939 -23.2019Q121.1404 -33.2084 134.8958 -32.8125Z" fill-rule="evenodd"/><path fill="#2A2522" transform="matrix(1 0 0 1 548 762)" d="M1.4014 54L16.2563 13.1912L22.2543 13.1912L37.2773 54L31.7838 54L27.6917 42.6206L10.8749 42.6206L6.951 54L1.4014 54M12.5005 38.0801L26.0661 38.0801L23.1512 29.7838Q22.3664 27.7658 21.4134 24.7948Q20.5165 21.8238 19.2272 17.3954Q17.9379 21.8799 16.985 24.9069Q16.032 27.9339 15.3594 29.7838L12.5005 38.0801ZM42.9563 54L42.9563 23.3934L47.7211 23.3934L47.7211 28.1021L48.0574 28.1021Q48.8983 25.8038 51.0844 24.4024Q53.2706 22.9449 56.0174 22.9449Q56.5219 22.9449 57.2506 23.001Q58.0354 23.001 58.4838 23.0571L58.4838 27.99Q58.2596 27.9339 57.3627 27.8218Q56.5219 27.7097 55.5129 27.7097Q52.2056 27.7097 50.0194 29.7277Q47.8892 31.7457 47.8892 34.8288L47.8892 54L42.9563 54ZM64.5723 54L64.5723 23.3934L69.5052 23.3934L69.5052 54L64.5723 54M67.0948 18.4044Q65.6934 18.4044 64.6844 17.4515Q63.6754 16.4985 63.6754 15.1532Q63.6754 13.7518 64.6844 12.8549Q65.6934 11.9019 67.0948 11.9019Q68.4962 11.9019 69.5052 12.8549Q70.5143 13.7518 70.5143 15.1532Q70.5143 16.4985 69.5052 17.4515Q68.4962 18.4044 67.0948 18.4044ZM86.7009 54.7287Q83.786 54.7287 81.4316 53.6637Q79.0773 52.5425 77.6759 50.4124Q76.2745 48.2823 76.2745 45.3113Q76.2745 42.6767 77.2835 41.0511Q78.3485 39.3694 80.0863 38.4725Q81.824 37.5195 83.8981 37.0711Q86.0282 36.5666 88.1583 36.2863Q90.9051 35.95 92.6428 35.7818Q94.3806 35.5576 95.1654 35.1091Q96.0062 34.6046 96.0062 33.4835L96.0062 33.3153Q96.0062 30.5125 94.3806 28.9429Q92.811 27.3173 89.6158 27.3173Q86.3085 27.3173 84.4586 28.7748Q82.6088 30.2322 81.8801 31.8018L77.1714 30.2883Q78.3485 27.4855 80.3105 25.9159Q82.3285 24.3463 84.7389 23.6737Q87.1493 23.001 89.5037 23.001Q91.0172 23.001 92.9792 23.3934Q94.9411 23.7297 96.7349 24.8509Q98.5848 25.972 99.762 28.1021Q100.9391 30.2322 100.9391 33.8198L100.9391 54L96.1183 54L96.1183 49.8519L95.782 49.8519Q95.2775 50.9169 94.1003 52.038Q92.9792 53.1592 91.1293 53.9439Q89.2795 54.7287 86.7009 54.7287M87.5417 50.3564Q90.2885 50.3564 92.1383 49.2913Q94.0442 48.2262 94.9972 46.5445Q96.0062 44.8068 96.0062 42.957L96.0062 38.6967Q95.7259 39.033 94.7169 39.3694Q93.7079 39.6497 92.4186 39.8739Q91.1293 40.042 89.8961 40.2102Q88.6629 40.3784 87.9341 40.4344Q86.1964 40.6587 84.6268 41.2192Q83.1133 41.7237 82.1604 42.7888Q81.2074 43.7978 81.2074 45.5355Q81.2074 47.9459 83.0012 49.1792Q84.795 50.3564 87.5417 50.3564ZM149.044 26.7568Q151.5105 26.7568 153.2482 28.4945Q154.986 30.2322 154.986 32.6987Q154.986 35.1652 153.2482 36.9029Q151.5105 38.6406 149.044 38.6406Q146.5776 38.6406 144.8398 36.9029Q143.1021 35.1652 143.1021 32.6987Q143.1021 30.2322 144.8398 28.4945Q146.5776 26.7568 149.044 26.7568ZM218.5378 10.6687L220.724 7.5295Q223.4707 8.2583 226.5538 9.3233Q229.6929 10.3884 232.5518 11.6216Q235.4106 12.7988 237.2605 13.8639L234.9622 17.4515Q233.1684 16.3303 230.3656 15.0971Q227.5628 13.8078 224.4237 12.6306Q221.3406 11.4535 218.5378 10.6687M242.5298 22.9449L245.8931 25.8038Q243.4267 28.2142 240.5117 30.8488Q237.6529 33.4835 235.0182 35.5015Q237.3726 40.2663 240.5678 44.0781Q243.763 47.8338 247.8551 50.0761Q247.1264 50.6366 246.2855 51.6456Q245.4447 52.6547 244.9402 53.5516Q240.2875 50.5806 236.812 45.8158Q233.3366 40.995 230.8701 34.8849L230.8701 53.4394Q230.8701 55.1772 230.4217 56.1862Q229.9732 57.2513 228.6839 57.7558Q227.5067 58.2603 225.4327 58.3724Q223.3586 58.4845 220.2755 58.4845Q220.1634 57.6436 219.715 56.4665Q219.3226 55.2893 218.8741 54.5045Q221.1724 54.5606 223.0783 54.5606Q225.0403 54.5606 225.713 54.5045Q226.3296 54.5045 226.5538 54.2242Q226.778 54 226.778 53.4394L226.778 22.5526L215.0623 22.5526L215.0623 18.6847L230.8701 18.6847L230.8701 23.6737Q231.9912 28.2142 233.5608 32.1942Q235.9151 30.1201 238.3816 27.5976Q240.8481 25.0751 242.5298 22.9449M212.7079 29.1111L221.3406 29.1111L222.1254 28.999L224.5918 29.8398Q223.0222 39.2012 219.1544 45.1431Q215.2865 51.0851 209.8491 54.1121Q209.4567 53.4394 208.5037 52.4304Q207.6068 51.4214 206.9342 50.973Q211.5868 48.5065 214.9502 44.0781Q218.3135 39.6497 219.9392 32.979L212.7079 32.979L212.7079 29.1111M196.788 14.3123L210.6899 14.3123L210.6899 44.0781L200.5438 44.0781L200.5438 49.1792L196.788 49.1792L196.788 14.3123M200.5438 18.2362L200.5438 40.0981L206.8781 40.0981L206.8781 18.2362L200.5438 18.2362ZM252.732 13.9199L268.0353 13.9199L268.0353 46.3203L256.7119 46.3203L256.7119 51.4775L252.732 51.4775L252.732 13.9199M256.7119 17.8438L256.7119 42.4525L264.0553 42.4525L264.0553 17.8438L256.7119 17.8438M269.773 11.7898L295.6148 11.7898L296.3436 11.5656L299.0343 12.5746Q297.6329 22.3844 294.6058 30.0641Q291.6349 37.6877 287.3746 43.3493Q290.3456 47.2172 294.1013 50.1882Q297.8571 53.1031 302.6219 54.953Q301.8931 55.5696 301.0523 56.5786Q300.2115 57.6436 299.7069 58.4284Q295.0543 56.4104 291.2985 53.4955Q287.5988 50.5245 284.6839 46.7127Q281.0963 50.6927 276.8361 53.6076Q272.6319 56.5225 267.9232 58.5405Q267.5308 57.7558 266.746 56.6907Q265.9612 55.6817 265.2325 55.1211Q270.0533 53.3273 274.3135 50.3564Q278.5738 47.3293 282.1614 43.1251Q278.742 37.5756 276.4437 30.6807Q274.1454 23.7297 272.6319 15.7137L269.773 15.7137L269.773 11.7898M276.3876 15.7137Q277.733 22.6086 279.751 28.6627Q281.8251 34.6607 284.8521 39.6497Q288.1594 34.9409 290.5698 28.999Q293.0363 23.001 294.3816 15.7137L276.3876 15.7137Z"/><path fill="#8A817A" transform="matrix(1 0 0 1 616 902)" d="M1.56 7.904L22.488 7.904L22.488 9.728L1.56 9.728L1.56 7.904M5.424 18.608L18.528 18.608L18.528 20.432L5.424 20.432L5.424 18.608M11.04 2.864L12.936 2.864L12.936 24.92L11.04 24.92L11.04 2.864M9.288 8.504L10.92 9.008Q10.032 11.504 8.664 13.808Q7.32 16.088 5.688 17.984Q4.056 19.856 2.232 21.104Q2.088 20.888 1.848 20.624Q1.608 20.336 1.344 20.096Q1.104 19.832 0.888 19.64Q2.664 18.56 4.272 16.808Q5.88 15.056 7.176 12.92Q8.472 10.76 9.288 8.504M14.616 8.576Q15.432 10.808 16.728 12.92Q18.048 15.032 19.68 16.736Q21.336 18.44 23.16 19.496Q22.944 19.664 22.656 19.952Q22.392 20.216 22.152 20.504Q21.912 20.792 21.744 21.056Q19.896 19.832 18.24 17.984Q16.584 16.112 15.24 13.832Q13.896 11.528 13.008 9.056L14.616 8.576ZM39.24 2.84L40.944 2.84L40.944 19.568L39.24 19.568L39.24 2.84M31.704 12.728L44.616 7.28L45.312 8.816L32.376 14.336L31.704 12.728M34.296 5.072L36.024 5.072L36.024 21.152Q36.024 21.8 36.168 22.16Q36.312 22.496 36.696 22.616Q37.104 22.736 37.92 22.736Q38.16 22.736 38.712 22.736Q39.264 22.736 39.984 22.736Q40.728 22.736 41.472 22.736Q42.216 22.736 42.816 22.736Q43.416 22.736 43.704 22.736Q44.424 22.736 44.76 22.472Q45.12 22.184 45.264 21.44Q45.432 20.696 45.528 19.328Q45.84 19.568 46.296 19.76Q46.776 19.952 47.136 20Q47.016 21.656 46.704 22.616Q46.392 23.576 45.696 23.96Q45.024 24.368 43.776 24.368Q43.56 24.368 42.96 24.368Q42.384 24.368 41.592 24.368Q40.8 24.368 40.008 24.368Q39.216 24.368 38.616 24.368Q38.04 24.368 37.848 24.368Q36.48 24.368 35.688 24.08Q34.92 23.816 34.608 23.096Q34.296 22.4 34.296 21.104L34.296 5.072M44.304 7.52L44.112 7.52L44.52 7.16L44.856 6.896L46.128 7.376L46.032 7.712Q46.032 9.416 46.008 10.904Q46.008 12.392 45.984 13.592Q45.96 14.792 45.912 15.608Q45.864 16.4 45.816 16.76Q45.72 17.48 45.384 17.864Q45.048 18.224 44.496 18.344Q44.016 18.488 43.368 18.512Q42.744 18.536 42.24 18.536Q42.192 18.176 42.072 17.72Q41.976 17.264 41.808 16.952Q42.24 16.976 42.72 17Q43.224 17 43.416 17Q43.704 17 43.872 16.88Q44.064 16.76 44.136 16.352Q44.208 16.112 44.232 15.392Q44.28 14.648 44.28 13.496Q44.304 12.344 44.304 10.832Q44.304 9.32 44.304 7.52M25.008 8.624L32.616 8.624L32.616 10.328L25.008 10.328L25.008 8.624M28.08 3.128L29.784 3.128L29.784 18.704L28.08 18.704L28.08 3.128M24.792 19.304Q25.752 18.944 27 18.44Q28.272 17.912 29.688 17.336Q31.104 16.736 32.52 16.136L32.928 17.744Q31.008 18.632 29.04 19.52Q27.096 20.408 25.512 21.104L24.792 19.304ZM50.688 5.024L69.528 5.024L69.528 6.656L50.688 6.656L50.688 5.024M49.32 10.664L70.704 10.664L70.704 12.296L49.32 12.296L49.32 10.664M53.736 18.44L66.432 18.44L66.432 19.88L53.736 19.88L53.736 18.44M53.76 22.496L66.456 22.496L66.456 24.032L53.76 24.032L53.76 22.496M52.632 14.408L67.632 14.408L67.632 24.896L65.76 24.896L65.76 15.944L54.408 15.944L54.408 24.944L52.632 24.944L52.632 14.408M64.44 6.704L66.384 7.184Q66.048 7.904 65.688 8.672Q65.328 9.416 64.944 10.112Q64.56 10.808 64.224 11.336L62.568 10.904Q62.88 10.328 63.24 9.608Q63.6 8.864 63.912 8.096Q64.224 7.328 64.44 6.704M53.952 7.184L55.656 6.8Q56.232 7.64 56.664 8.672Q57.096 9.68 57.24 10.448L55.392 10.904Q55.248 10.136 54.84 9.104Q54.456 8.048 53.952 7.184M58.44 3.008L60.216 2.648Q60.672 3.296 61.032 4.112Q61.392 4.904 61.536 5.504L59.64 5.936Q59.52 5.312 59.184 4.496Q58.848 3.656 58.44 3.008ZM83.568 7.616L85.392 7.616L85.392 22.568Q85.392 23.432 85.152 23.864Q84.936 24.32 84.36 24.536Q83.784 24.752 82.8 24.8Q81.816 24.872 80.28 24.872Q80.208 24.488 80.016 23.96Q79.848 23.456 79.632 23.072Q80.4 23.096 81.072 23.096Q81.768 23.096 82.272 23.096Q82.776 23.096 82.992 23.096Q83.304 23.072 83.424 22.976Q83.568 22.856 83.568 22.568L83.568 7.616M91.968 3.104L93 4.688Q91.44 5.096 89.448 5.384Q87.48 5.648 85.248 5.84Q83.04 6.032 80.808 6.152Q78.6 6.248 76.536 6.272Q76.512 5.936 76.368 5.456Q76.248 4.976 76.104 4.664Q78.144 4.592 80.352 4.496Q82.56 4.376 84.696 4.184Q86.832 3.992 88.704 3.728Q90.576 3.464 91.968 3.104M77.664 16.328L79.416 16.904Q78.744 18.056 77.88 19.256Q77.04 20.432 76.128 21.512Q75.24 22.568 74.4 23.408Q74.256 23.24 73.968 23.024Q73.704 22.808 73.416 22.592Q73.128 22.376 72.912 22.232Q73.776 21.488 74.64 20.528Q75.528 19.544 76.296 18.464Q77.088 17.384 77.664 16.328M88.608 17.072L90.168 16.352Q91.032 17.288 91.968 18.416Q92.928 19.52 93.744 20.6Q94.56 21.656 95.04 22.472L93.384 23.336Q92.904 22.496 92.112 21.416Q91.32 20.312 90.408 19.184Q89.496 18.032 88.608 17.072M75.096 14.576Q75.048 14.384 74.928 14.072Q74.832 13.736 74.712 13.424Q74.592 13.088 74.496 12.872Q74.736 12.776 74.904 12.392Q75.072 11.984 75.24 11.336Q75.336 10.928 75.528 9.896Q75.72 8.84 75.888 7.448Q76.08 6.056 76.104 4.664L77.952 5.072Q77.904 6.512 77.688 8.024Q77.472 9.512 77.16 10.928Q76.872 12.32 76.56 13.448L76.56 13.472Q76.56 13.472 76.32 13.592Q76.104 13.688 75.816 13.88Q75.528 14.048 75.312 14.24Q75.096 14.432 75.096 14.576M75.096 14.576L75.096 13.088L76.344 12.44L94.2 12.44L94.176 14.264L77.928 14.264Q77.136 14.264 76.536 14.312Q75.936 14.336 75.576 14.408Q75.216 14.48 75.096 14.576ZM116.688 2.984L117.72 4.328Q116.496 4.592 114.96 4.832Q113.448 5.048 111.744 5.24Q110.064 5.408 108.36 5.528Q106.656 5.624 105.048 5.696Q105.024 5.408 104.88 5.024Q104.76 4.616 104.616 4.352Q106.2 4.28 107.856 4.16Q109.536 4.016 111.144 3.848Q112.776 3.68 114.192 3.464Q115.632 3.248 116.688 2.984M104.352 9.104L118.728 9.104L118.728 10.616L104.352 10.616L104.352 9.104M110.592 4.4L112.248 4.4L112.248 15.104L110.592 15.104L110.592 4.4M110.592 16.256L112.152 16.256L112.152 23.336L110.592 23.336L110.592 16.256M106.176 6.272L107.616 5.816Q108 6.488 108.408 7.256Q108.84 8.024 109.032 8.552L107.52 9.104Q107.328 8.552 106.944 7.76Q106.56 6.944 106.176 6.272M115.416 5.384L117 5.864Q116.472 6.92 115.872 8.024Q115.296 9.104 114.768 9.872L113.448 9.416Q113.784 8.864 114.144 8.168Q114.528 7.448 114.864 6.728Q115.2 5.984 115.416 5.384M109.608 9.92L111.048 10.448Q110.328 11.672 109.248 12.8Q108.168 13.928 106.896 14.84Q105.648 15.752 104.4 16.352Q104.208 16.064 103.872 15.656Q103.536 15.248 103.248 15.008Q104.472 14.552 105.672 13.76Q106.872 12.944 107.904 11.96Q108.96 10.976 109.608 9.92M113.28 9.92Q113.952 10.88 114.96 11.816Q115.968 12.752 117.12 13.52Q118.296 14.264 119.424 14.744Q119.16 14.96 118.824 15.368Q118.488 15.752 118.272 16.088Q117.12 15.512 115.92 14.624Q114.72 13.736 113.664 12.68Q112.608 11.6 111.888 10.472L113.28 9.92M105.72 15.632L117.48 15.632L117.48 24.752L115.8 24.752L115.8 17.024L107.328 17.024L107.328 24.896L105.72 24.896L105.72 15.632M106.776 19.04L116.304 19.04L116.304 20.384L106.776 20.384L106.776 19.04M106.776 22.472L116.256 22.472L116.256 23.84L106.776 23.84L106.776 22.472M96.672 15.464Q98.04 15.008 99.984 14.312Q101.928 13.616 103.92 12.872L104.232 14.504Q102.36 15.224 100.464 15.944Q98.592 16.64 97.056 17.216L96.672 15.464M97.008 7.688L104.28 7.688L104.28 9.368L97.008 9.368L97.008 7.688M100.008 2.864L101.688 2.864L101.688 22.832Q101.688 23.552 101.496 23.96Q101.328 24.368 100.872 24.584Q100.44 24.8 99.72 24.872Q99 24.944 97.848 24.92Q97.824 24.608 97.656 24.104Q97.512 23.624 97.344 23.24Q98.112 23.264 98.736 23.264Q99.384 23.288 99.6 23.264Q99.816 23.264 99.912 23.168Q100.008 23.096 100.008 22.832L100.008 2.864ZM124.944 3.248L126.528 2.792Q126.912 3.56 127.272 4.472Q127.632 5.36 127.848 5.984L126.168 6.536Q126.024 5.864 125.664 4.952Q125.304 4.016 124.944 3.248M121.056 6.728L131.712 6.728L131.712 8.408L121.056 8.408L121.056 6.728M124.944 11.6L129.552 11.6L129.552 13.28L124.944 13.28L124.944 11.6M128.928 11.6L130.632 11.6Q130.632 11.6 130.632 11.768Q130.632 11.912 130.632 12.104Q130.632 12.296 130.608 12.44Q130.56 15.392 130.488 17.456Q130.416 19.496 130.32 20.792Q130.224 22.088 130.08 22.832Q129.936 23.552 129.696 23.84Q129.384 24.248 129.048 24.416Q128.736 24.584 128.256 24.632Q127.824 24.68 127.104 24.68Q126.408 24.68 125.64 24.656Q125.616 24.272 125.496 23.792Q125.376 23.336 125.184 22.976Q125.928 23.048 126.528 23.048Q127.152 23.072 127.44 23.072Q127.704 23.072 127.872 23Q128.04 22.952 128.16 22.736Q128.328 22.52 128.424 21.896Q128.544 21.248 128.64 20Q128.736 18.752 128.784 16.784Q128.856 14.816 128.928 11.984L128.928 11.6M134.136 7.328L143.088 7.328L143.088 9.008L134.136 9.008L134.136 7.328M134.688 2.816L136.536 3.128Q136.104 5.408 135.456 7.592Q134.808 9.752 133.968 11.624Q133.128 13.472 132.072 14.888Q131.928 14.696 131.664 14.456Q131.424 14.192 131.136 13.952Q130.872 13.688 130.68 13.52Q131.664 12.248 132.432 10.544Q133.2 8.84 133.752 6.872Q134.328 4.904 134.688 2.816M139.632 8.216L141.408 8.432Q140.784 12.56 139.608 15.704Q138.432 18.824 136.44 21.128Q134.448 23.408 131.4 24.968Q131.328 24.752 131.136 24.464Q130.944 24.176 130.728 23.888Q130.536 23.6 130.344 23.408Q133.248 22.04 135.096 19.952Q136.968 17.864 138.024 14.96Q139.104 12.032 139.632 8.216M134.856 8.864Q135.432 12.2 136.488 15.08Q137.544 17.936 139.2 20.072Q140.88 22.184 143.304 23.336Q143.112 23.504 142.872 23.768Q142.632 24.056 142.416 24.32Q142.2 24.608 142.032 24.872Q139.512 23.552 137.784 21.272Q136.08 18.968 135 15.896Q133.92 12.8 133.296 9.128L134.856 8.864M123.888 7.544L125.616 7.544L125.616 13.424Q125.616 15.392 125.352 17.408Q125.112 19.4 124.32 21.296Q123.552 23.192 121.944 24.896Q121.704 24.608 121.32 24.272Q120.936 23.96 120.6 23.72Q122.064 22.16 122.76 20.432Q123.48 18.68 123.672 16.904Q123.888 15.104 123.888 13.4L123.888 7.544ZM148.704 5.48L148.704 8.864L152.784 8.864L152.784 5.48L148.704 5.48M147.072 3.92L154.488 3.92L154.488 10.424L147.072 10.424L147.072 3.92M158.928 5.48L158.928 8.864L163.248 8.864L163.248 5.48L158.928 5.48M157.272 3.92L165 3.92L165 10.424L157.272 10.424L157.272 3.92M145.248 12.92L166.776 12.92L166.776 14.528L145.248 14.528L145.248 12.92M147.888 22.64L153.72 22.64L153.72 24.224L147.888 24.224L147.888 22.64M158.064 22.64L164.136 22.64L164.136 24.224L158.064 24.224L158.064 22.64M158.976 13.304Q159.816 14.336 161.136 15.272Q162.48 16.208 164.088 16.904Q165.696 17.6 167.328 18.008Q167.136 18.176 166.896 18.44Q166.68 18.704 166.488 18.968Q166.296 19.232 166.176 19.448Q164.496 18.968 162.864 18.128Q161.232 17.288 159.816 16.232Q158.424 15.152 157.464 13.928L158.976 13.304M147.072 17.504L154.488 17.504L154.488 24.776L152.76 24.776L152.76 19.088L148.752 19.088L148.752 24.92L147.072 24.92L147.072 17.504M157.32 17.504L165 17.504L165 24.776L163.248 24.776L163.248 19.088L158.976 19.088L158.976 24.92L157.32 24.92L157.32 17.504M154.44 10.232L156.264 10.568Q155.4 12.32 153.984 14Q152.568 15.68 150.504 17.12Q148.464 18.56 145.728 19.616Q145.632 19.4 145.464 19.16Q145.296 18.896 145.104 18.656Q144.912 18.416 144.72 18.248Q147.336 17.288 149.256 15.992Q151.2 14.672 152.496 13.184Q153.792 11.696 154.44 10.232M158.736 11.384L159.672 10.424Q160.584 10.736 161.592 11.264Q162.624 11.768 163.224 12.224L162.24 13.28Q161.688 12.8 160.656 12.272Q159.648 11.72 158.736 11.384Z"/></svg>